<svg width="76" height="124" viewBox="0 0 76 124" fill="none" xmlns="http://www.w3.org/2000/svg">
<path d="M0 3C0 1.34314 1.34315 0 3 0H31V124H3C1.34315 124 0 122.657 0 121V3Z" fill="#2CB67D"/>
<path d="M24 0H73C74.6569 0 76 1.34315 76 3V21C76 22.6569 74.6569 24 73 24H24V0Z" fill="#2CB67D"/>
<path d="M24 52H63C64.6569 52 66 53.3431 66 55V70C66 71.6569 64.6569 73 63 73H24V52Z" fill="#2CB67D"/>
<path d="M24 100H73C74.6569 100 76 101.343 76 103V121C76 122.657 74.6569 124 73 124H24V100Z" fill="#2CB67D"/>
</svg>
