<svg width="83" height="124" viewBox="0 0 83 124" fill="none" xmlns="http://www.w3.org/2000/svg">
<path d="M0 3C0 1.34314 1.34315 0 3 0H31V124H3C1.34315 124 0 122.657 0 121V3Z" fill="#2CB67D"/>
<path d="M31 0H80C81.6569 0 83 1.34315 83 3V21C83 22.6569 81.6569 24 80 24H31V0Z" fill="#2CB67D"/>
<path d="M31 52H70C71.6569 52 73 53.3431 73 55V70C73 71.6569 71.6569 73 70 73H31V52Z" fill="#2CB67D"/>
<path d="M31 100H80C81.6569 100 83 101.343 83 103V121C83 122.657 81.6569 124 80 124H31V100Z" fill="#2CB67D"/>
</svg>
